<?xml version="1.0" encoding="UTF-8" standalone="no"?>
<svg
   viewBox="0 0 256 256"
   version="1.1"
   id="svg20"
   sodipodi:docname="404_ilustration.svg"
   inkscape:version="1.3 (0e150ed6c4, 2023-07-21)"
   width="256"
   height="256"
   xmlns:inkscape="http://www.inkscape.org/namespaces/inkscape"
   xmlns:sodipodi="http://sodipodi.sourceforge.net/DTD/sodipodi-0.dtd"
   xmlns="http://www.w3.org/2000/svg"
   xmlns:svg="http://www.w3.org/2000/svg">
  <defs
     id="defs20" />
  <sodipodi:namedview
     id="namedview20"
     pagecolor="#ffffff"
     bordercolor="#000000"
     borderopacity="0.25"
     inkscape:showpageshadow="2"
     inkscape:pageopacity="0.0"
     inkscape:pagecheckerboard="0"
     inkscape:deskcolor="#d1d1d1"
     inkscape:zoom="0.846875"
     inkscape:cx="162.36162"
     inkscape:cy="373.72694"
     inkscape:window-width="1920"
     inkscape:window-height="1009"
     inkscape:window-x="-8"
     inkscape:window-y="-8"
     inkscape:window-maximized="1"
     inkscape:current-layer="svg20" />
  <g
     id="g20"
     transform="matrix(0.49051149,0,0,0.49051149,11.906067,3.3324015)">
    <path
       fill="none"
       stroke="#7d8395"
       stroke-linecap="round"
       stroke-linejoin="round"
       stroke-width="4.18218"
       d="m 34.604685,65.370523 c 0,0 -0.72871,-16.52277 8.98218,-22.06733"
       id="path1" />
    <line
       x1="26.398748"
       x2="24.101713"
       y1="64.245766"
       y2="46.012112"
       fill="none"
       stroke="#7d8395"
       stroke-linecap="round"
       stroke-linejoin="round"
       stroke-width="4.18218"
       id="line1" />
    <path
       fill="none"
       stroke="#00bcd4"
       stroke-linecap="round"
       stroke-linejoin="round"
       stroke-width="25.806"
       d="m 156.52157,215.58048 c 0,0 15.25545,-70.85943 -52.27725,-79.35052 C 36.711615,127.73887 30.374985,68.934883 30.374985,68.934883"
       id="path2" />
    <path
       fill="#00bcd4"
       d="m 141.02849,275.77852 -5.00594,-6.65346 c -14.4,-19.1208 -12.54654,-45.90893 4.3406,-62.87527 l 63.31883,-63.57231 c 8.5703,-8.60198 22.16239,-9.56832 31.85744,-2.26534 l 24.79209,18.67723 c 0,0 -74.56637,54.28913 -92.07132,76.22973 -17.50496,21.94061 -27.2317,40.44358 -27.2317,40.44358 z"
       id="path3"
       style="stroke-width:1.58416" />
    <path
       fill="none"
       stroke="#7d8395"
       stroke-linecap="round"
       stroke-linejoin="round"
       stroke-width="4.18218"
       d="m 364.14145,257.16466 c -19.51684,-0.42773 -38.92279,-6.62179 -55.44557,-18.61387 -4.13465,-2.97822 -8.06337,-6.3208 -11.7703,-10.01189 -38.43169,-38.28912 -38.54259,-100.51489 -0.25346,-138.946577 38.28912,-38.4317 100.49904,-38.55843 138.93074,-0.26931 3.70693,3.69109 7.06535,7.6198 10.05941,11.738617 15.50892,21.21189 21.57625,49.14061 17.94852,74.04359"
       id="path4" />
    <path
       fill="none"
       stroke="#7d8395"
       stroke-linecap="round"
       stroke-linejoin="round"
       stroke-width="4.18218"
       d="m 268.1731,153.86165 c -20.84754,13.71881 -127.49312,86.17825 -130.02777,135.12876 -1.58416,30.46338 14.19406,52.46735 28.32476,65.9327"
       id="path5" />
    <path
       fill="none"
       stroke="#7d8395"
       stroke-linecap="round"
       stroke-linejoin="round"
       stroke-width="4.18218"
       d="m 201.92357,384.81619 c 20.84753,9.07723 37.21189,30.65348 16.64951,45.41784 -20.54654,14.74852 -43.35843,-16.8713 -54.82775,-33.58417 -11.46931,-16.71288 -7.82574,-31.96833 2.69308,-41.71091 10.88317,-10.05941 14.98614,-14.46337 26.01189,-25.47328"
       id="path6" />
    <path
       fill="none"
       stroke="#7d8395"
       stroke-linecap="round"
       stroke-linejoin="round"
       stroke-width="4.18218"
       d="m 245.12358,415.7865 c 20.84754,9.07723 37.2119,30.65347 16.64951,45.41784 -18.28119,13.11683 -38.33664,-10.43961 -50.61388,-27.58021"
       id="path7" />
    <path
       fill="none"
       stroke="#7d8395"
       stroke-linecap="round"
       stroke-linejoin="round"
       stroke-width="4.18218"
       d="m 257.63844,355.31915 c -18.04357,21.11684 -38.87526,38.73269 -38.87526,38.73269"
       id="path8" />
    <path
       fill="none"
       stroke="#7d8395"
       stroke-linecap="round"
       stroke-linejoin="round"
       stroke-width="4.18218"
       d="m 248.16517,273.54486 c 11.40594,2.6297 23.66733,8.68119 30.49506,22.00397 3.72277,7.27129 1.80594,16.74456 -3.2,26.89902"
       id="path9" />
    <path
       fill="none"
       stroke="#7d8395"
       stroke-linecap="round"
       stroke-linejoin="round"
       stroke-width="4.18218"
       d="m 311.49985,379.1449 c -14.52674,22.08318 -48.50695,47.28715 -48.50695,47.28715"
       id="path10" />
    <path
       fill="none"
       stroke="#7d8395"
       stroke-linecap="round"
       stroke-linejoin="round"
       stroke-width="4.18218"
       d="m 279.68993,311.24784 c 17.79011,-0.22178 43.59606,2.91486 53.1327,21.52873"
       id="path11" />
    <path
       fill="none"
       stroke="#7d8395"
       stroke-linecap="round"
       stroke-linejoin="round"
       stroke-width="4.18218"
       d="m 275.46023,322.43201 c 41.69506,25.42575 14.84357,54.78022 -7.63565,37.8614 C 244.1414,342.47162 153.00474,317.96468 214.35922,237.06168"
       id="path12" />
    <path
       fill="none"
       stroke="#7d8395"
       stroke-linecap="round"
       stroke-linejoin="round"
       stroke-width="4.18218"
       d="m 270.73943,238.64584 c 0,0 -54.46338,53.56041 -2.58217,79.74656 2.64554,1.3307 5.0693,2.67723 7.30297,4.03961"
       id="path13" />
    <path
       fill="none"
       stroke="#7d8395"
       stroke-linecap="round"
       stroke-linejoin="round"
       stroke-width="4.18218"
       d="m 308.33153,314.63795 13.73466,-11.72278 c 2.97822,-2.5505 4.65742,-2.66139 6.79604,0.63366 8.83961,16.1109 6.30495,26.40793 3.9604,29.22774 -2.34456,2.8198 -5.98813,11.50099 -24.47526,3.5802 -2.18614,-0.93466 -4.46733,-1.64753 -6.82773,-1.96436 -3.27921,-0.44357 -7.38218,-0.31683 -9.34653,2.40792"
       id="path14" />
    <path
       fill="none"
       stroke="#7d8395"
       stroke-linecap="round"
       stroke-linejoin="round"
       stroke-width="4.18218"
       d="m 376.03848,260.7607 c 1.96436,6.52673 3.35842,24.04753 -1.88515,70.87527 -8.76039,78.11488 -76.43567,42.07526 -76.43567,42.07526 0,0 -11.0099,-5.75049 -11.65941,-8.95049"
       id="path15" />
    <path
       fill="none"
       stroke="#7d8395"
       stroke-linecap="round"
       stroke-linejoin="round"
       stroke-width="4.18218"
       d="m 224.32358,148.26957 c 6.30495,6.68515 11.07327,14.82772 13.25941,25.45743"
       id="path16" />
    <path
       fill="none"
       stroke="#7d8395"
       stroke-linecap="round"
       stroke-linejoin="round"
       stroke-width="4.18218"
       d="m 346.01867,124.22203 c 8.93466,-5.97228 18.42377,-9.39406 26.89902,-9.4099 27.05744,-0.0475 76.08716,43.75447 87.16043,54.85942 2.39208,2.40793 3.97624,5.48119 4.45149,8.83961 1.6792,11.81783 2.37623,41.10893 -25.29902,65.44161 -35.59606,31.2713 -75.0733,13.21189 -75.0733,13.21189 0,0 -48.76041,-24.4911 -52.22972,-66.02775 -1.06139,-12.62575 1.67921,-24.63367 6.74852,-35.2317"
       id="path17" />
    <circle
       cx="323.27014"
       cy="132.23788"
       fill="none"
       stroke="#7d8395"
       stroke-linecap="round"
       stroke-linejoin="round"
       stroke-width="4.18218"
       id="circle17"
       r="24.126741" />
    <line
       x1="183.62653"
       x2="138.22453"
       y1="162.82799"
       y2="208.56267"
       fill="none"
       stroke="#7d8395"
       stroke-linecap="round"
       stroke-linejoin="round"
       stroke-width="4.18218"
       id="line17" />
    <line
       x1="155.14334"
       x2="172.33147"
       y1="191.53297"
       y2="209.78246"
       fill="none"
       stroke="#7d8395"
       stroke-linecap="round"
       stroke-linejoin="round"
       stroke-width="4.18218"
       id="line18" />
    <line
       x1="21.693808"
       x2="8.1650753"
       y1="63.612103"
       y2="52.602207"
       fill="none"
       stroke="#7d8395"
       stroke-linecap="round"
       stroke-linejoin="round"
       stroke-width="4.18218"
       id="line19" />
    <path
       fill="none"
       stroke="#7d8395"
       stroke-linecap="round"
       stroke-linejoin="round"
       stroke-width="4.18218"
       d="m 56.244295,97.291333 c -10.23366,0.82376 -17.6,4.910887 -21.73466,12.641587"
       id="path19" />
    <path
       fill="none"
       stroke="#7d8395"
       stroke-linecap="round"
       stroke-linejoin="round"
       stroke-width="4.18218"
       d="m 123.74532,129.57649 c -3.37426,9.02971 -4.02376,15.58812 -3.13664,23.06535"
       id="path20" />
  </g>
</svg>
